<?xml version="1.0" encoding="UTF-8" standalone="no"?><!DOCTYPE svg PUBLIC "-//W3C//DTD SVG 1.1//EN" "http://www.w3.org/Graphics/SVG/1.1/DTD/svg11.dtd"><svg width="100%" height="100%" viewBox="0 0 1296 805" version="1.1" xmlns="http://www.w3.org/2000/svg" xmlns:xlink="http://www.w3.org/1999/xlink" xml:space="preserve" xmlns:serif="http://www.serif.com/" style="fill-rule:evenodd;clip-rule:evenodd;stroke-linejoin:round;stroke-miterlimit:2;"><g id="Layer-1" serif:id="Layer 1"><g><path d="M706.569,135.682c23.601,-2.2 47.9,-3.3 72.9,-3.4c58.201,-0.2 110,3.6 155.5,11.5c33.9,5.9 66.5,14.6 97.9,26.2l-32,12.9l96.4,16.1l-78.8,-66.9l15.701,34.3c-92.701,-45.7 -200.601,-66 -323.901,-61.2l-24.899,0.2c-51.001,2.1 -100.401,9.8 -148.101,22.8c-24.7,6.7 -54.9,17.1 -90.4,31.2c-17.1,6.8 -35.2,15.4 -54,25.8c-13.3,7.4 -24.4,14.2 -33.5,20.3c-45.3,31 -79.2,66.4 -101.8,106.1c-22,38.7 -32.1,79.8 -30.3,123.2c3.3,85.7 54.6,156.9 153.7,213.8c36.8,21 72.2,37.1 106.2,48.3c18.7,6.1 36.4,11.4 53,15.9l52.2,12.2l-98.9,-41.9c-6.6,-2.9 -16,-7.6 -28.1,-14.3c-10.5,-5.8 -18.5,-10.4 -24.2,-13.9c-94.2,-59.3 -141.4,-131.2 -141.8,-215.5c-0.2,-71.5 33.4,-134.3 100.8,-188.4c12.1,-9.6 25.2,-19 39.4,-28c76.1,-48.7 165.1,-77.8 267,-87.3" style="fill:#fbaa1b;fill-rule:nonzero;"/><path d="M630.17,62.782c-1.4,0.1 -2.8,0.1 -4.1,0.2c-129.5,5.6 -241.6,35.6 -336.3,89.9c-13.7,8 -27.1,16.3 -40.1,25.3c-103.5,71 -153.4,153.8 -149.7,248.3c3.8,94.5 60,173.1 168.8,235.7c30.6,17.7 66,33.1 106.4,46.4c18.5,6.1 38.7,11.8 60.5,17.5l-34,16.9l110.9,-4.7l-93.3,-57.3l20.6,34.2c-6.3,-2.4 -13.7,-5.3 -22.4,-8.6c-18.9,-7.2 -33.4,-13 -43.6,-17.4c-16,-7 -29,-13.6 -39.1,-20c-103.4,-65.4 -155.2,-144.7 -155.6,-237.7c-0.3,-78.9 36.6,-148.2 110.6,-207.8c13.2,-10.7 27.6,-20.9 43.2,-31c83.6,-53.7 181.2,-85.8 293.1,-96.3c25.8,-2.3 52.6,-3.6 80,-3.701c63.9,-0.199 120.7,4 170.6,12.701c48.9,8.5 92.1,21 129.5,37.3l0.8,-1.3c-106.4,-58.1 -231.9,-84.3 -376.8,-78.6" style="fill:#29398e;fill-rule:nonzero;"/><path d="M596.97,305.082c0,-9 -3.2,-16.7 -9.6,-23.1c-6.3,-6.4 -14,-9.5 -23,-9.5c-9.1,0 -16.8,3.1 -23.1,9.5c-6.4,6.4 -9.6,14.1 -9.6,23.1c0,9 3.2,16.7 9.6,23.1c6.3,6.3 14,9.5 23.1,9.5c9,0 16.7,-3.2 23,-9.5c6.4,-6.4 9.6,-14.1 9.6,-23.1" style="fill:#fbaa1b;fill-rule:nonzero;"/><path d="M785.47,371.482l0,259.6l66.3,0l0.5,-228.3c1,-0.9 2.1,-1.8 3.4,-2.7c4.7,-3 10.4,-4.5 17.1,-4.5l6.5,0c6.8,0.101 13,2.9 18.599,8.5c4.301,4.3 6.801,9.2 7.701,14.8l0,212.7l63.4,0l-0.601,-214c0.901,-5.6 3.401,-10.6 7.601,-14.8c5.6,-5.599 11.8,-8.4 18.7,-8.5l6.5,0c6.6,0 12.3,1.5 17.1,4.5c1.2,0.901 2.4,1.8 3.3,2.7l0,230.1l64.7,0l-0.2,-259.5c-4,-4.1 -8.9,-7.8 -14.9,-11.3c-14.801,-8.8 -32.2,-14 -52.1,-15.6l-27.201,0c-19.899,1.6 -37.199,6.8 -52,15.6c-1.299,0.7 -2.5,1.5 -3.699,2.3c-1.4,-1 -2.9,-1.9 -4.4,-2.9c-14.8,-8.8 -32.1,-14 -52,-15.5l-27.2,0c-19.9,1.5 -37.3,6.7 -52.1,15.5c-6,3.5 -11,7.3 -15,11.3" style="fill:#29398e;fill-rule:nonzero;"/><path d="M604.569,276.182l0,58.4l47.5,0c2.9,0 5.7,1.3 8.4,4c2.3,2.3 3.4,5 3.5,8.1l0,285.9l60.5,0l0,-285c0,-3.3 1.401,-6.4 4.3,-9.3c2.5,-2.5 5.601,-3.7 9.2,-3.7l45.901,0l0,-58.4l-179.301,0Z" style="fill:#29398e;fill-rule:nonzero;"/><path d="M597.77,348.882l-61.6,0l0,216.9c0,4.901 -2.9,9.3 -8.8,13.1c-5.5,3.7 -12.2,5.5 -20.1,5.5c-7.8,0 -14.5,-1.8 -20.1,-5.5c-5.4,-3.5 -8.1,-7.8 -8.3,-12.8l0,-27.3l-60.4,0l0.1,37.1c2.4,13.5 11.2,25.9 26.6,37.2c17.3,12.901 38.3,19.3 62.9,19.3c24.6,0 45.6,-6.399 63,-19.3c16.6,-12.3 25.6,-26.5 26.8,-42.5l-0.1,-221.7Z" style="fill:#283792;fill-rule:nonzero;"/><path d="M513.482,644.596l5.9,0l0,20.492c0,3.262 -0.259,5.55 -0.777,6.866c-0.518,1.316 -1.372,2.362 -2.561,3.139c-1.19,0.777 -2.618,1.165 -4.284,1.165c-3.401,0 -6.299,-1.491 -8.692,-4.472l4.241,-3.968c0.938,1.064 1.736,1.777 2.394,2.141c0.657,0.365 1.294,0.546 1.91,0.546c0.63,0 1.099,-0.265 1.407,-0.798c0.308,-0.532 0.462,-1.7 0.462,-3.507l0,-21.604Z" style="fill:#231f20;fill-rule:nonzero;"/><path d="M544.596,657.341c-1.772,0 -3.244,0.626 -4.416,1.879c-1.171,1.252 -1.757,2.859 -1.757,4.818c0,1.974 0.596,3.598 1.789,4.871c1.193,1.274 2.66,1.911 4.405,1.911c1.799,0 3.292,-0.626 4.478,-1.879c1.185,-1.252 1.778,-2.894 1.778,-4.924c0,-1.987 -0.593,-3.597 -1.778,-4.828c-1.186,-1.233 -2.686,-1.848 -4.499,-1.848m6.025,-4.703l5.732,0l0,22.844l-5.732,0l0,-2.415c-1.118,1.063 -2.24,1.83 -3.365,2.299c-1.126,0.469 -2.346,0.704 -3.66,0.704c-2.95,0 -5.502,-1.145 -7.655,-3.434c-2.153,-2.289 -3.229,-5.133 -3.229,-8.535c0,-3.528 1.041,-6.417 3.125,-8.671c2.083,-2.253 4.613,-3.38 7.591,-3.38c1.37,0 2.656,0.259 3.858,0.776c1.203,0.519 2.314,1.295 3.335,2.331l0,-2.519Z" style="fill:#231f20;fill-rule:nonzero;"/><path d="M581.819,657.341c-1.806,0 -3.304,0.615 -4.493,1.848c-1.19,1.231 -1.785,2.841 -1.785,4.828c0,2.03 0.595,3.672 1.785,4.924c1.189,1.253 2.687,1.879 4.493,1.879c1.75,0 3.223,-0.637 4.42,-1.911c1.196,-1.273 1.795,-2.897 1.795,-4.871c0,-1.959 -0.588,-3.566 -1.764,-4.818c-1.176,-1.253 -2.659,-1.879 -4.451,-1.879m-6.026,-13.521l0,11.337c1.036,-1.036 2.155,-1.812 3.359,-2.331c1.204,-0.517 2.492,-0.776 3.864,-0.776c2.981,0 5.514,1.127 7.6,3.38c2.086,2.254 3.129,5.143 3.129,8.671c0,3.402 -1.078,6.246 -3.234,8.535c-2.155,2.289 -4.71,3.434 -7.663,3.434c-1.316,0 -2.541,-0.235 -3.675,-0.704c-1.133,-0.469 -2.26,-1.236 -3.38,-2.299l0,2.415l-5.69,0l0,-31.662l5.69,0Z" style="fill:#231f20;fill-rule:nonzero;"/><path d="M617.279,657.341c-1.772,0 -3.244,0.626 -4.416,1.879c-1.171,1.252 -1.757,2.859 -1.757,4.818c0,1.974 0.596,3.598 1.789,4.871c1.193,1.274 2.66,1.911 4.405,1.911c1.799,0 3.292,-0.626 4.478,-1.879c1.185,-1.252 1.778,-2.894 1.778,-4.924c0,-1.987 -0.593,-3.597 -1.778,-4.828c-1.186,-1.233 -2.686,-1.848 -4.499,-1.848m6.025,-4.703l5.732,0l0,22.844l-5.732,0l0,-2.415c-1.118,1.063 -2.24,1.83 -3.365,2.299c-1.126,0.469 -2.346,0.704 -3.66,0.704c-2.95,0 -5.502,-1.145 -7.655,-3.434c-2.153,-2.289 -3.229,-5.133 -3.229,-8.535c0,-3.528 1.041,-6.417 3.125,-8.671c2.083,-2.253 4.613,-3.38 7.591,-3.38c1.37,0 2.656,0.259 3.858,0.776c1.203,0.519 2.314,1.295 3.335,2.331l0,-2.519Z" style="fill:#231f20;fill-rule:nonzero;"/><path d="M643.479,644.218l5.732,0l0,8.42l3.401,0l0,4.934l-3.401,0l0,17.91l-5.732,0l0,-17.91l-2.939,0l0,-4.934l2.939,0l0,-8.42Z" style="fill:#231f20;fill-rule:nonzero;"/><path d="M674.467,657.341c-1.771,0 -3.243,0.626 -4.415,1.879c-1.172,1.252 -1.758,2.859 -1.758,4.818c0,1.974 0.596,3.598 1.789,4.871c1.193,1.274 2.661,1.911 4.405,1.911c1.799,0 3.292,-0.626 4.478,-1.879c1.186,-1.252 1.778,-2.894 1.778,-4.924c0,-1.987 -0.592,-3.597 -1.778,-4.828c-1.186,-1.233 -2.685,-1.848 -4.499,-1.848m6.025,-4.703l5.733,0l0,22.844l-5.733,0l0,-2.415c-1.118,1.063 -2.24,1.83 -3.365,2.299c-1.126,0.469 -2.346,0.704 -3.66,0.704c-2.95,0 -5.501,-1.145 -7.654,-3.434c-2.154,-2.289 -3.23,-5.133 -3.23,-8.535c0,-3.528 1.042,-6.417 3.125,-8.671c2.083,-2.253 4.613,-3.38 7.591,-3.38c1.371,0 2.656,0.259 3.859,0.776c1.203,0.519 2.314,1.295 3.334,2.331l0,-2.519Z" style="fill:#231f20;fill-rule:nonzero;"/><path d="M699.975,652.638l5.732,0l0,2.34c1.299,-1.096 2.477,-1.858 3.533,-2.285c1.054,-0.429 2.134,-0.643 3.239,-0.643c2.264,0 4.185,0.791 5.766,2.372c1.328,1.344 1.992,3.331 1.992,5.963l0,15.097l-5.67,0l0,-10.004c0,-2.727 -0.122,-4.537 -0.366,-5.432c-0.246,-0.894 -0.671,-1.576 -1.279,-2.045c-0.607,-0.468 -1.357,-0.703 -2.251,-0.703c-1.159,0 -2.154,0.389 -2.985,1.164c-0.83,0.777 -1.406,1.85 -1.728,3.22c-0.168,0.714 -0.251,2.258 -0.251,4.634l0,9.166l-5.732,0l0,-22.844Z" style="fill:#231f20;fill-rule:nonzero;"/><path d="M751.305,644.596l17.07,0l0,5.795l-5.627,0l0,25.091l-5.963,0l0,-25.091l-5.48,0l0,-5.795Z" style="fill:#231f20;fill-rule:nonzero;"/><path d="M796.885,661.205c-0.378,-1.273 -1.125,-2.311 -2.24,-3.107c-1.114,-0.799 -2.407,-1.198 -3.88,-1.198c-1.599,0 -3,0.449 -4.206,1.344c-0.757,0.561 -1.458,1.547 -2.104,2.961l12.43,0Zm5.732,4.514l-18.414,0c0.266,1.624 0.977,2.915 2.132,3.873c1.154,0.959 2.628,1.439 4.419,1.439c2.143,0 3.983,-0.749 5.523,-2.247l4.829,2.268c-1.204,1.708 -2.646,2.971 -4.325,3.79c-1.68,0.818 -3.675,1.228 -5.984,1.228c-3.584,0 -6.502,-1.131 -8.756,-3.39c-2.254,-2.262 -3.381,-5.092 -3.381,-8.495c0,-3.484 1.124,-6.378 3.371,-8.681c2.247,-2.303 5.063,-3.453 8.451,-3.453c3.596,0 6.522,1.15 8.776,3.453c2.254,2.303 3.381,5.344 3.381,9.123l-0.022,1.092Z" style="fill:#231f20;fill-rule:nonzero;"/><path d="M815.212,652.638l5.731,0l0,2.34c1.301,-1.096 2.478,-1.858 3.534,-2.285c1.054,-0.429 2.134,-0.643 3.239,-0.643c2.265,0 4.186,0.791 5.766,2.372c1.327,1.344 1.991,3.331 1.991,5.963l0,15.097l-5.668,0l0,-10.004c0,-2.727 -0.123,-4.537 -0.367,-5.432c-0.245,-0.894 -0.67,-1.576 -1.278,-2.045c-0.607,-0.468 -1.358,-0.703 -2.252,-0.703c-1.159,0 -2.154,0.389 -2.984,1.164c-0.832,0.777 -1.408,1.85 -1.729,3.22c-0.168,0.714 -0.252,2.258 -0.252,4.634l0,9.166l-5.731,0l0,-22.844Z" style="fill:#231f20;fill-rule:nonzero;"/><path d="M859.806,657.341c-1.772,0 -3.243,0.626 -4.415,1.879c-1.172,1.252 -1.758,2.859 -1.758,4.818c0,1.974 0.596,3.598 1.789,4.871c1.193,1.274 2.66,1.911 4.405,1.911c1.799,0 3.292,-0.626 4.478,-1.879c1.186,-1.252 1.778,-2.894 1.778,-4.924c0,-1.987 -0.592,-3.597 -1.778,-4.828c-1.186,-1.233 -2.686,-1.848 -4.499,-1.848m6.025,-4.703l5.732,0l0,22.844l-5.732,0l0,-2.415c-1.118,1.063 -2.241,1.83 -3.366,2.299c-1.125,0.469 -2.346,0.704 -3.659,0.704c-2.95,0 -5.502,-1.145 -7.655,-3.434c-2.153,-2.289 -3.229,-5.133 -3.229,-8.535c0,-3.528 1.041,-6.417 3.125,-8.671c2.082,-2.253 4.613,-3.38 7.591,-3.38c1.37,0 2.656,0.259 3.858,0.776c1.204,0.519 2.315,1.295 3.335,2.331l0,-2.519Z" style="fill:#231f20;fill-rule:nonzero;"/><path d="M896.252,657.404c-1.806,0 -3.297,0.605 -4.473,1.816c-1.175,1.211 -1.763,2.733 -1.763,4.567c0,1.904 0.601,3.465 1.806,4.681c1.203,1.219 2.715,1.828 4.535,1.828c1.778,0 3.245,-0.595 4.399,-1.785c1.154,-1.189 1.732,-2.751 1.732,-4.682c0,-1.904 -0.582,-3.45 -1.743,-4.64c-1.162,-1.189 -2.659,-1.785 -4.493,-1.785m5.941,-4.766l5.711,0l0,19.569c0,3.863 -0.776,6.704 -2.33,8.523c-2.086,2.464 -5.228,3.695 -9.427,3.695c-2.24,0 -4.123,-0.279 -5.648,-0.839c-1.526,-0.56 -2.813,-1.382 -3.863,-2.467c-1.05,-1.084 -1.827,-2.404 -2.331,-3.957l6.32,0c0.56,0.642 1.281,1.13 2.162,1.459c0.883,0.328 1.925,0.493 3.129,0.493c1.539,0 2.778,-0.238 3.717,-0.714c0.937,-0.476 1.598,-1.092 1.984,-1.848c0.385,-0.755 0.576,-2.057 0.576,-3.905c-1.007,1.008 -2.064,1.732 -3.17,2.173c-1.105,0.441 -2.359,0.662 -3.757,0.662c-3.067,0 -5.657,-1.105 -7.77,-3.318c-2.113,-2.211 -3.17,-5.01 -3.17,-8.399c0,-3.625 1.119,-6.536 3.36,-8.734c2.029,-1.986 4.451,-2.981 7.264,-2.981c1.316,0 2.558,0.241 3.728,0.725c1.168,0.483 2.34,1.277 3.515,2.383l0,-2.52Z" style="fill:#231f20;fill-rule:nonzero;"/><path d="M932.489,657.341c-1.772,0 -3.243,0.626 -4.415,1.879c-1.172,1.252 -1.758,2.859 -1.758,4.818c0,1.974 0.596,3.598 1.789,4.871c1.193,1.274 2.66,1.911 4.405,1.911c1.799,0 3.292,-0.626 4.478,-1.879c1.186,-1.252 1.778,-2.894 1.778,-4.924c0,-1.987 -0.592,-3.597 -1.778,-4.828c-1.186,-1.233 -2.686,-1.848 -4.499,-1.848m6.025,-4.703l5.732,0l0,22.844l-5.732,0l0,-2.415c-1.118,1.063 -2.241,1.83 -3.366,2.299c-1.125,0.469 -2.346,0.704 -3.659,0.704c-2.95,0 -5.502,-1.145 -7.655,-3.434c-2.153,-2.289 -3.229,-5.133 -3.229,-8.535c0,-3.528 1.041,-6.417 3.125,-8.671c2.082,-2.253 4.613,-3.38 7.591,-3.38c1.37,0 2.656,0.259 3.858,0.776c1.204,0.519 2.315,1.295 3.335,2.331l0,-2.519Z" style="fill:#231f20;fill-rule:nonzero;"/><path d="M981.608,644.596l5.728,0l7.16,21.542l7.224,-21.542l5.725,0l5.181,30.886l-5.685,0l-3.312,-19.506l-6.561,19.506l-5.182,0l-6.503,-19.506l-3.391,19.506l-5.732,0l5.348,-30.886Z" style="fill:#231f20;fill-rule:nonzero;"/><path d="M1035.47,657.341c-1.771,0 -3.243,0.626 -4.415,1.879c-1.172,1.252 -1.758,2.859 -1.758,4.818c0,1.974 0.597,3.598 1.789,4.871c1.193,1.274 2.661,1.911 4.405,1.911c1.799,0 3.292,-0.626 4.478,-1.879c1.186,-1.252 1.778,-2.894 1.778,-4.924c0,-1.987 -0.592,-3.597 -1.778,-4.828c-1.186,-1.233 -2.685,-1.848 -4.499,-1.848m6.025,-4.703l5.733,0l0,22.844l-5.733,0l0,-2.415c-1.118,1.063 -2.24,1.83 -3.365,2.299c-1.126,0.469 -2.346,0.704 -3.66,0.704c-2.949,0 -5.502,-1.145 -7.654,-3.434c-2.154,-2.289 -3.23,-5.133 -3.23,-8.535c0,-3.528 1.042,-6.417 3.125,-8.671c2.083,-2.253 4.613,-3.38 7.591,-3.38c1.371,0 2.656,0.259 3.859,0.776c1.203,0.519 2.314,1.295 3.334,2.331l0,-2.519Z" style="fill:#231f20;fill-rule:nonzero;"/><path d="M1060.97,652.638l5.732,0l0,2.34c1.299,-1.096 2.477,-1.858 3.533,-2.285c1.054,-0.429 2.134,-0.643 3.239,-0.643c2.264,0 4.185,0.791 5.766,2.372c1.328,1.344 1.992,3.331 1.992,5.963l0,15.097l-5.67,0l0,-10.004c0,-2.727 -0.122,-4.537 -0.366,-5.432c-0.246,-0.894 -0.671,-1.576 -1.279,-2.045c-0.607,-0.468 -1.357,-0.703 -2.251,-0.703c-1.159,0 -2.154,0.389 -2.985,1.164c-0.83,0.777 -1.406,1.85 -1.728,3.22c-0.168,0.714 -0.251,2.258 -0.251,4.634l0,9.166l-5.732,0l0,-22.844Z" style="fill:#231f20;fill-rule:nonzero;"/><path d="M1094.71,652.638l5.795,0l0,11.002c0,2.141 0.147,3.629 0.441,4.461c0.295,0.833 0.77,1.48 1.422,1.942c0.653,0.462 1.455,0.693 2.41,0.693c0.953,0 1.764,-0.227 2.43,-0.682c0.667,-0.455 1.162,-1.123 1.484,-2.006c0.239,-0.657 0.358,-2.064 0.358,-4.22l0,-11.19l5.732,0l0,9.679c0,3.989 -0.314,6.718 -0.945,8.188c-0.77,1.792 -1.903,3.167 -3.4,4.125c-1.498,0.959 -3.403,1.44 -5.711,1.44c-2.506,0 -4.533,-0.561 -6.078,-1.68c-1.547,-1.12 -2.636,-2.681 -3.266,-4.683c-0.448,-1.385 -0.672,-3.905 -0.672,-7.558l0,-9.511Z" style="fill:#231f20;fill-rule:nonzero;"/><path d="M1142.48,655.83l-3.549,3.548c-1.441,-1.428 -2.75,-2.142 -3.926,-2.142c-0.644,0 -1.148,0.137 -1.511,0.41c-0.365,0.272 -0.546,0.612 -0.546,1.018c0,0.309 0.115,0.592 0.346,0.85c0.231,0.259 0.801,0.613 1.711,1.06l2.1,1.051c2.211,1.092 3.73,2.204 4.557,3.338c0.825,1.134 1.238,2.464 1.238,3.989c0,2.03 -0.745,3.724 -2.236,5.081c-1.491,1.358 -3.489,2.037 -5.995,2.037c-3.332,0 -5.991,-1.303 -7.978,-3.906l3.527,-3.842c0.672,0.784 1.459,1.418 2.363,1.901c0.902,0.482 1.704,0.724 2.403,0.724c0.756,0 1.365,-0.181 1.827,-0.547c0.462,-0.363 0.692,-0.783 0.692,-1.259c0,-0.881 -0.832,-1.743 -2.498,-2.582l-1.931,-0.966c-3.696,-1.862 -5.543,-4.193 -5.543,-6.992c0,-1.806 0.696,-3.349 2.089,-4.63c1.393,-1.28 3.173,-1.92 5.343,-1.92c1.484,0 2.88,0.324 4.189,0.976c1.308,0.651 2.418,1.584 3.328,2.803" style="fill:#231f20;fill-rule:nonzero;"/><path d="M1154.74,652.638l5.731,0l0,22.844l-5.731,0l0,-22.844Zm2.866,-9.406c1.005,0 1.867,0.363 2.586,1.092c0.718,0.727 1.078,1.609 1.078,2.644c0,1.023 -0.356,1.894 -1.069,2.616c-0.711,0.72 -1.562,1.08 -2.552,1.08c-1.02,0 -1.889,-0.368 -2.608,-1.102c-0.718,-0.734 -1.078,-1.627 -1.078,-2.678c0,-1.008 0.356,-1.868 1.068,-2.582c0.711,-0.714 1.57,-1.07 2.575,-1.07" style="fill:#231f20;fill-rule:nonzero;"/><path d="M1184.46,657.341c-1.772,0 -3.244,0.626 -4.416,1.879c-1.172,1.252 -1.758,2.859 -1.758,4.818c0,1.974 0.596,3.598 1.789,4.871c1.194,1.274 2.66,1.911 4.405,1.911c1.8,0 3.293,-0.626 4.478,-1.879c1.186,-1.252 1.779,-2.894 1.779,-4.924c0,-1.987 -0.593,-3.597 -1.779,-4.828c-1.185,-1.233 -2.686,-1.848 -4.498,-1.848m6.025,-4.703l5.732,0l0,22.844l-5.732,0l0,-2.415c-1.119,1.063 -2.241,1.83 -3.366,2.299c-1.126,0.469 -2.346,0.704 -3.659,0.704c-2.951,0 -5.502,-1.145 -7.655,-3.434c-2.154,-2.289 -3.23,-5.133 -3.23,-8.535c0,-3.528 1.041,-6.417 3.125,-8.671c2.083,-2.253 4.614,-3.38 7.592,-3.38c1.369,0 2.656,0.259 3.857,0.776c1.204,0.519 2.315,1.295 3.336,2.331l0,-2.519Z" style="fill:#231f20;fill-rule:nonzero;"/></g></g></svg>