<?xml version="1.0" encoding="UTF-8" standalone="no"?><!DOCTYPE svg PUBLIC "-//W3C//DTD SVG 1.1//EN" "http://www.w3.org/Graphics/SVG/1.1/DTD/svg11.dtd"><svg width="100%" height="100%" viewBox="0 0 1080 1080" version="1.1" xmlns="http://www.w3.org/2000/svg" xmlns:xlink="http://www.w3.org/1999/xlink" xml:space="preserve" xmlns:serif="http://www.serif.com/" style="fill-rule:evenodd;clip-rule:evenodd;stroke-miterlimit:10;"><path d="M101.703,960.171l24.734,19.707c-0.039,0 -0.053,0.066 -0.053,0.175c0,0.367 -0.178,0.541 -0.528,0.541l-6.218,0l-22.416,-18.04l-5.447,0l0,17.499c0,0.367 -0.174,0.541 -0.531,0.541l-3.728,0c-0.352,0 -0.537,-0.174 -0.537,-0.541l0,-36.671c0,-0.395 0.185,-0.598 0.537,-0.598l3.728,0c0.357,0 0.531,0.203 0.531,0.598l0,14.632l5.315,0l23.012,-15.23l5.996,0c0.388,0 0.581,0.203 0.581,0.598c0,0.076 -0.022,0.178 -0.066,0.301l-24.91,16.488Z" style="fill:#fff;fill-rule:nonzero;"/><path d="M178.339,980.593c-0.368,0 -0.531,-0.171 -0.531,-0.538l0,-36.671c0,-0.398 0.163,-0.6 0.531,-0.6l31.584,0c0.324,0 0.483,0.202 0.483,0.6l0,3.761c0,0.407 -0.159,0.598 -0.483,0.598l-27.336,0l0,10.935l26.449,0c0.326,0 0.482,0.189 0.482,0.594l0,3.759c0,0.402 -0.156,0.598 -0.482,0.598l-26.449,0l0,12.078l27.336,0c0.324,0 0.483,0.168 0.483,0.526l0,3.822c0,0.367 -0.159,0.538 -0.483,0.538l-31.584,0Z" style="fill:#fff;fill-rule:nonzero;"/><path d="M309.81,980.593c-0.372,0 -0.541,-0.171 -0.541,-0.538l0,-33.261l-1.121,0l-19.28,33.683c-0.08,0.076 -0.229,0.116 -0.414,0.116l-2.552,0c-0.082,0 -0.159,-0.016 -0.24,-0.051l-19.102,-33.748l-1.077,0l0,33.261c0,0.367 -0.176,0.538 -0.521,0.538l-3.849,0c-0.359,0 -0.538,-0.171 -0.538,-0.538l0,-36.671c0,-0.398 0.179,-0.6 0.538,-0.6l8.519,0c0.112,0 0.207,0.026 0.29,0.062l17.334,30.886l17.877,-30.824c0.08,-0.084 0.205,-0.124 0.412,-0.124l8.033,0c0.282,0 0.427,0.202 0.427,0.6l0,36.671c0,0.367 -0.145,0.538 -0.427,0.538l-3.768,0Z" style="fill:#fff;fill-rule:nonzero;"/><path d="M366.669,980.593c-0.368,0 -0.537,-0.171 -0.537,-0.538l0,-36.671c0,-0.398 0.169,-0.6 0.537,-0.6l31.593,0c0.31,0 0.471,0.202 0.471,0.6l0,3.761c0,0.407 -0.161,0.598 -0.471,0.598l-27.343,0l0,10.935l26.453,0c0.317,0 0.478,0.189 0.478,0.594l0,3.759c0,0.402 -0.161,0.598 -0.478,0.598l-26.453,0l0,12.078l27.343,0c0.31,0 0.471,0.168 0.471,0.526l0,3.822c0,0.367 -0.161,0.538 -0.471,0.538l-31.593,0Z" style="fill:#fff;fill-rule:nonzero;"/><path d="M483.581,980.593c-0.207,0 -0.315,-0.051 -0.359,-0.171l-28.341,-33.628l-1.18,0l0,33.261c0,0.367 -0.18,0.538 -0.535,0.538l-3.721,0c-0.35,0 -0.529,-0.171 -0.529,-0.538l0,-36.671c0,-0.398 0.179,-0.6 0.529,-0.6l8.215,0c0.117,0 0.267,0.088 0.421,0.244l26.5,31.84l0,-31.484c0,-0.398 0.196,-0.6 0.595,-0.6l3.727,0c0.357,0 0.529,0.202 0.529,0.6l0,36.671c0,0.367 -0.172,0.538 -0.529,0.538l-5.322,0Z" style="fill:#fff;fill-rule:nonzero;"/><path d="M561.445,947.742l0,32.312c0,0.367 -0.189,0.538 -0.537,0.538l-3.726,0c-0.317,0 -0.473,-0.171 -0.473,-0.538l0,-32.312l-16.858,0c-0.396,0 -0.588,-0.191 -0.588,-0.596l0,-3.763c0,-0.398 0.192,-0.598 0.588,-0.598l38.518,0c0.383,0 0.584,0.2 0.584,0.598l0,3.763c0,0.405 -0.201,0.596 -0.584,0.596l-16.924,0Z" style="fill:#fff;fill-rule:nonzero;"/><path d="M629.249,980.593c-0.357,0 -0.524,-0.171 -0.524,-0.538l0,-36.671c0,-0.398 0.167,-0.6 0.524,-0.6l31.584,0c0.33,0 0.48,0.202 0.48,0.6l0,3.761c0,0.407 -0.15,0.598 -0.48,0.598l-27.328,0l0,10.935l26.454,0c0.312,0 0.471,0.189 0.471,0.594l0,3.759c0,0.402 -0.159,0.598 -0.471,0.598l-26.454,0l0,12.078l27.328,0c0.33,0 0.48,0.168 0.48,0.526l0,3.822c0,0.367 -0.15,0.538 -0.48,0.538l-31.584,0Z" style="fill:#fff;fill-rule:nonzero;"/><path d="M739.289,947.988l-22.947,0l0,10.45l22.711,0c4.708,0 7.053,-1.772 7.053,-5.315c0,-3.426 -2.275,-5.135 -6.817,-5.135m8.825,32.605c-0.348,0 -0.524,-0.171 -0.524,-0.538c0,-1.032 0.042,-2.599 0.176,-4.713c0.075,-1.04 0.128,-1.914 0.17,-2.63c0.044,-0.718 0.07,-1.274 0.07,-1.672c0,-1.316 -0.134,-2.418 -0.374,-3.316c-0.231,-0.89 -0.546,-1.63 -0.934,-2.174c-0.592,-0.683 -1.413,-1.174 -2.451,-1.474c-1.05,-0.292 -2.345,-0.447 -3.886,-0.447l-24.019,0l0,16.426c0,0.367 -0.178,0.538 -0.543,0.538l-3.766,0c-0.374,0 -0.539,-0.171 -0.539,-0.538l0,-36.671c0,-0.398 0.165,-0.6 0.539,-0.6l26.263,0c8.402,0 12.603,3.37 12.603,10.099c0,1.709 -0.222,3.172 -0.651,4.388c-0.436,1.218 -1.106,2.123 -2.008,2.719c1.413,0.64 2.527,1.816 3.36,3.525c0.359,0.754 0.607,1.637 0.748,2.63c0.143,0.99 0.201,2.05 0.201,3.159l0,10.751c0,0.367 -0.139,0.538 -0.41,0.538l-4.025,0Z" style="fill:#fff;fill-rule:nonzero;"/><path d="M804.263,980.593c-0.311,0 -0.469,-0.171 -0.469,-0.538l0,-36.671c0,-0.398 0.158,-0.6 0.469,-0.6l2.904,0c0.269,0 0.407,0.202 0.407,0.6l0,36.671c0,0.367 -0.138,0.538 -0.407,0.538l-2.904,0Z" style="fill:#fff;fill-rule:nonzero;"/><path d="M869.641,966.985l19.94,0l-9.884,-19.84l-10.056,19.84Zm27.229,13.608l-0.364,0c0,-0.038 -0.024,-0.092 -0.061,-0.172l0.061,0.056l-4.432,-8.783l-24.906,0l-4.391,8.783l0,-0.056l0,0.172l-0.292,0l-4.142,0c-0.353,0 -0.529,-0.172 -0.529,-0.538l0,-0.056c0,-0.073 0.027,-0.16 0.113,-0.242l0,0.122l18.588,-36.971c0.071,-0.085 0.192,-0.125 0.35,-0.125l5.747,0c0.095,0 0.185,0.016 0.196,0.029c0.02,0.034 0.053,0.06 0.095,0.096l18.696,36.971l0,-0.122c0.029,0.082 0.049,0.169 0.049,0.242l0,0.056c0,0.366 -0.156,0.538 -0.469,0.538l-4.309,0Z" style="fill:#fff;fill-rule:nonzero;"/><path d="M986.622,980.593c-0.203,0 -0.324,-0.051 -0.361,-0.171l-28.343,-33.628l-1.172,0l0,33.261c0,0.367 -0.189,0.538 -0.548,0.538l-3.728,0c-0.339,0 -0.515,-0.171 -0.515,-0.538l0,-36.671c0,-0.398 0.176,-0.6 0.515,-0.6l8.227,0c0.114,0 0.255,0.088 0.418,0.244l26.504,31.84l0,-31.484c0,-0.398 0.185,-0.6 0.595,-0.6l3.737,0c0.348,0 0.524,0.202 0.524,0.6l0,36.671c0,0.367 -0.176,0.538 -0.524,0.538l-5.329,0Z" style="fill:#fff;fill-rule:nonzero;"/><path d="M143.228,1054.98c-1.332,1.065 -3.057,1.834 -5.201,2.31c-2.138,0.471 -4.675,0.711 -7.61,0.711l-25.796,0c-5.214,0 -9.261,-1.198 -12.145,-3.606c-3.38,-2.694 -5.06,-6.62 -5.06,-11.764c0,-0.498 0.2,-0.751 0.651,-0.751l5.248,0c0.495,0 0.744,0.253 0.744,0.751c0.066,1.681 0.361,3.112 0.907,4.291c0.555,1.173 1.475,2.065 2.75,2.681c0.89,0.451 2.061,0.813 3.488,1.091c1.451,0.285 3.129,0.42 5.089,0.42l23.88,0c1.869,0 3.465,-0.135 4.738,-0.42c1.271,-0.278 2.323,-0.676 3.155,-1.176c1.112,-0.667 1.885,-1.596 2.328,-2.768c0.445,-1.184 0.66,-2.576 0.66,-4.203c0,-3.41 -1.508,-5.74 -4.569,-6.967c-1.213,-0.556 -2.825,-0.958 -4.817,-1.181c-2.006,-0.222 -4.327,-0.342 -6.998,-0.342l-1.993,0c-0.72,0 -1.576,0.038 -2.576,0.089l-1.334,0l-1.495,0c-0.111,0 -0.252,0.013 -0.421,0.047c-0.165,0.031 -0.359,0.04 -0.577,0.04l-1.081,0c-1.163,0.057 -2.204,0.08 -3.083,0.08l-2.164,0c-7.099,0 -12.397,-0.838 -15.887,-2.517c-4.717,-2.236 -7.082,-6.389 -7.082,-12.438c0,-9.683 5.408,-14.523 16.229,-14.523l26.293,0c11.868,0 17.807,5.12 17.807,15.366c0,0.451 -0.192,0.676 -0.584,0.676l-5.399,0c-0.438,0 -0.672,-0.225 -0.672,-0.676c-0.057,-1.616 -0.367,-3.03 -0.918,-4.244c-0.555,-1.203 -1.466,-2.103 -2.741,-2.725c-1.892,-0.952 -4.725,-1.427 -8.491,-1.427l-25.458,0c-1.722,0 -3.145,0.144 -4.283,0.42c-1.143,0.282 -2.046,0.647 -2.708,1.093c-1.553,1.007 -2.328,3.046 -2.328,6.127c0,3.081 1.528,5.244 4.587,6.476c2.536,1.065 6.451,1.585 11.714,1.585l2.581,0c1.171,0 2.556,-0.025 4.159,-0.08c0.165,0 0.35,-0.007 0.546,-0.036c0.185,-0.033 0.396,-0.042 0.621,-0.042l1.083,0c0.996,-0.053 1.885,-0.087 2.66,-0.087l1.835,0c3.776,0 7.037,0.22 9.809,0.672c2.779,0.446 5.109,1.087 7,1.931c4.926,2.466 7.407,6.752 7.407,12.849c0,5.663 -1.501,9.748 -4.498,12.267" style="fill:#fff;fill-rule:nonzero;"/><path d="M143.228,1054.98c-1.332,1.065 -3.057,1.834 -5.201,2.31c-2.138,0.471 -4.675,0.711 -7.61,0.711l-25.796,0c-5.214,0 -9.261,-1.198 -12.145,-3.606c-3.38,-2.694 -5.06,-6.62 -5.06,-11.764c0,-0.498 0.2,-0.751 0.651,-0.751l5.248,0c0.495,0 0.744,0.253 0.744,0.751c0.066,1.681 0.361,3.112 0.907,4.291c0.555,1.173 1.475,2.065 2.75,2.681c0.89,0.451 2.061,0.813 3.488,1.091c1.451,0.285 3.129,0.42 5.089,0.42l23.88,0c1.869,0 3.465,-0.135 4.738,-0.42c1.271,-0.278 2.323,-0.676 3.155,-1.176c1.112,-0.667 1.885,-1.596 2.328,-2.768c0.445,-1.184 0.66,-2.576 0.66,-4.203c0,-3.41 -1.508,-5.74 -4.569,-6.967c-1.213,-0.556 -2.825,-0.958 -4.817,-1.181c-2.006,-0.222 -4.327,-0.342 -6.998,-0.342l-1.993,0c-0.72,0 -1.576,0.038 -2.576,0.089l-1.334,0l-1.495,0c-0.111,0 -0.252,0.013 -0.421,0.047c-0.165,0.031 -0.359,0.04 -0.577,0.04l-1.081,0c-1.163,0.057 -2.204,0.08 -3.083,0.08l-2.164,0c-7.099,0 -12.397,-0.838 -15.887,-2.517c-4.717,-2.236 -7.082,-6.389 -7.082,-12.438c0,-9.683 5.408,-14.523 16.229,-14.523l26.293,0c11.868,0 17.807,5.12 17.807,15.366c0,0.451 -0.192,0.676 -0.584,0.676l-5.399,0c-0.438,0 -0.672,-0.225 -0.672,-0.676c-0.057,-1.616 -0.367,-3.03 -0.918,-4.244c-0.555,-1.203 -1.466,-2.103 -2.741,-2.725c-1.892,-0.952 -4.725,-1.427 -8.491,-1.427l-25.458,0c-1.722,0 -3.145,0.144 -4.283,0.42c-1.143,0.282 -2.046,0.647 -2.708,1.093c-1.553,1.007 -2.328,3.046 -2.328,6.127c0,3.081 1.528,5.244 4.587,6.476c2.536,1.065 6.451,1.585 11.714,1.585l2.581,0c1.171,0 2.556,-0.025 4.159,-0.08c0.165,0 0.35,-0.007 0.546,-0.036c0.185,-0.033 0.396,-0.042 0.621,-0.042l1.083,0c0.996,-0.053 1.885,-0.087 2.66,-0.087l1.835,0c3.776,0 7.037,0.22 9.809,0.672c2.779,0.446 5.109,1.087 7,1.931c4.926,2.466 7.407,6.752 7.407,12.849c0,5.663 -1.501,9.748 -4.498,12.267Z" style="fill:#fff;fill-rule:nonzero;stroke:#030405;stroke-width:1.08px;"/><path d="M217.774,1049.35c-1.548,3.468 -4.27,5.802 -8.15,6.971c0,0.058 -0.022,0.089 -0.083,0.089c-1.564,0.5 -3.627,0.89 -6.205,1.172c-2.568,0.282 -5.697,0.42 -9.363,0.42l-7.806,0c-3.675,0 -6.786,-0.138 -9.371,-0.42c-2.565,-0.282 -4.67,-0.672 -6.271,-1.172c-0.062,0 -0.126,-0.031 -0.174,-0.089c-2.011,-0.611 -3.658,-1.509 -4.996,-2.683c-1.333,-1.178 -2.411,-2.61 -3.246,-4.288c-0.771,-1.683 -1.348,-3.835 -1.704,-6.467c-0.357,-2.632 -0.54,-5.711 -0.54,-9.236l0,-27.973c0,-0.558 0.229,-0.838 0.67,-0.838l5.242,0c0.498,0 0.742,0.28 0.742,0.838l0,27.973c0,5.706 0.518,9.801 1.59,12.251c0.993,2.305 2.819,3.73 5.49,4.29c2.168,0.567 6.343,0.84 12.568,0.84l7.806,0c6.22,0 10.406,-0.273 12.571,-0.84c2.662,-0.618 4.412,-2.038 5.247,-4.29c0.599,-1.165 1.011,-2.775 1.2,-4.822c0.2,-2.048 0.295,-4.524 0.295,-7.429l0,-27.973c0,-0.558 0.264,-0.838 0.826,-0.838l5.165,0c0.498,0 0.74,0.28 0.74,0.838l0,27.973c0,7.115 -0.74,12.342 -2.243,15.703" style="fill:#fff;fill-rule:nonzero;"/><path d="M217.774,1049.35c-1.548,3.468 -4.27,5.802 -8.15,6.971c0,0.058 -0.022,0.089 -0.083,0.089c-1.564,0.5 -3.627,0.89 -6.205,1.172c-2.568,0.282 -5.697,0.42 -9.363,0.42l-7.806,0c-3.675,0 -6.786,-0.138 -9.371,-0.42c-2.565,-0.282 -4.67,-0.672 -6.271,-1.172c-0.062,0 -0.126,-0.031 -0.174,-0.089c-2.011,-0.611 -3.658,-1.509 -4.996,-2.683c-1.333,-1.178 -2.411,-2.61 -3.246,-4.288c-0.771,-1.683 -1.348,-3.835 -1.704,-6.467c-0.357,-2.632 -0.54,-5.711 -0.54,-9.236l0,-27.973c0,-0.558 0.229,-0.838 0.67,-0.838l5.242,0c0.498,0 0.742,0.28 0.742,0.838l0,27.973c0,5.706 0.518,9.801 1.59,12.251c0.993,2.305 2.819,3.73 5.49,4.29c2.168,0.567 6.343,0.84 12.568,0.84l7.806,0c6.22,0 10.406,-0.273 12.571,-0.84c2.662,-0.618 4.412,-2.038 5.247,-4.29c0.599,-1.165 1.011,-2.775 1.2,-4.822c0.2,-2.048 0.295,-4.524 0.295,-7.429l0,-27.973c0,-0.558 0.264,-0.838 0.826,-0.838l5.165,0c0.498,0 0.74,0.28 0.74,0.838l0,27.973c0,7.115 -0.74,12.342 -2.243,15.703Z" style="fill:#fff;fill-rule:nonzero;stroke:#030405;stroke-width:1.08px;"/><path d="M301.982,1058c-0.506,0 -0.766,-0.249 -0.766,-0.751l0,-46.793l-1.568,0l-27.119,47.373c-0.123,0.118 -0.313,0.171 -0.592,0.171l-3.578,0c-0.11,0 -0.218,-0.027 -0.328,-0.082l-26.881,-47.462l-1.498,0l0,46.793c0,0.502 -0.246,0.751 -0.746,0.751l-5.415,0c-0.493,0 -0.735,-0.249 -0.735,-0.751l0,-51.577c0,-0.558 0.242,-0.838 0.735,-0.838l11.985,0c0.17,0 0.304,0.022 0.421,0.087l24.375,43.422l25.124,-43.349c0.117,-0.109 0.313,-0.16 0.59,-0.16l11.311,0c0.381,0 0.568,0.28 0.568,0.838l0,51.577c0,0.502 -0.187,0.751 -0.568,0.751l-5.315,0Z" style="fill:#fff;fill-rule:nonzero;stroke:#030405;stroke-width:1.08px;"/><path d="M369.437,1035.24c-0.768,-0.507 -1.779,-0.89 -3.027,-1.181c-1.244,-0.28 -2.768,-0.409 -4.53,-0.409l-34.369,0l0,17.467l34.612,0c3.379,0 5.868,-0.734 7.449,-2.221c1.57,-1.485 2.371,-3.742 2.371,-6.761c0,-3.31 -0.83,-5.606 -2.506,-6.895m-2.411,-21.628c-1.603,-1.205 -3.976,-1.805 -7.152,-1.805l-32.363,0l0,15.034l32.445,0c3.281,0 5.52,-0.473 6.742,-1.432c1.839,-0.944 2.739,-2.965 2.739,-6.048c0,-2.628 -0.801,-4.549 -2.411,-5.749m10.365,36.075c-0.806,2.136 -2.09,3.844 -3.867,5.129c-1.447,1.116 -3.276,1.927 -5.494,2.436c-2.21,0.502 -4.826,0.751 -7.823,0.751l-38.681,0c-0.498,0 -0.753,-0.249 -0.753,-0.751l0,-51.576c0,-0.558 0.255,-0.838 0.753,-0.838l36.276,0c12.197,0 18.301,4.532 18.301,13.604c0,5.32 -1.278,9.042 -3.832,11.173c4.215,2.075 6.331,6.24 6.331,12.52c0,2.897 -0.414,5.427 -1.211,7.552" style="fill:#fff;fill-rule:nonzero;"/><path d="M369.437,1035.24c-0.768,-0.507 -1.779,-0.89 -3.027,-1.181c-1.244,-0.28 -2.768,-0.409 -4.53,-0.409l-34.369,0l0,17.467l34.612,0c3.379,0 5.868,-0.734 7.449,-2.221c1.57,-1.485 2.371,-3.742 2.371,-6.761c0,-3.31 -0.83,-5.606 -2.506,-6.895Zm-2.411,-21.628c-1.603,-1.205 -3.976,-1.805 -7.152,-1.805l-32.363,0l0,15.034l32.445,0c3.281,0 5.52,-0.473 6.742,-1.432c1.839,-0.944 2.739,-2.965 2.739,-6.048c0,-2.628 -0.801,-4.549 -2.411,-5.749Zm10.365,36.075c-0.806,2.136 -2.09,3.844 -3.867,5.129c-1.447,1.116 -3.276,1.927 -5.494,2.436c-2.21,0.502 -4.826,0.751 -7.823,0.751l-38.681,0c-0.498,0 -0.753,-0.249 -0.753,-0.751l0,-51.576c0,-0.558 0.255,-0.838 0.753,-0.838l36.276,0c12.197,0 18.301,4.532 18.301,13.604c0,5.32 -1.278,9.042 -3.832,11.173c4.215,2.075 6.331,6.24 6.331,12.52c0,2.897 -0.414,5.427 -1.211,7.552Z" style="fill:#fff;fill-rule:nonzero;stroke:#030405;stroke-width:1.08px;"/><path d="M391.491,1058c-0.5,0 -0.742,-0.249 -0.742,-0.751l0,-51.577c0,-0.558 0.242,-0.838 0.742,-0.838l44.43,0c0.436,0 0.661,0.28 0.661,0.838l0,5.287c0,0.564 -0.225,0.844 -0.661,0.844l-38.441,0l0,15.377l37.191,0c0.449,0 0.669,0.276 0.669,0.84l0,5.287c0,0.556 -0.22,0.836 -0.669,0.836l-37.191,0l0,16.968l38.441,0c0.436,0 0.661,0.253 0.661,0.756l0,5.382c0,0.502 -0.225,0.751 -0.661,0.751l-44.43,0Z" style="fill:#fff;fill-rule:nonzero;stroke:#030405;stroke-width:1.08px;"/><path d="M485.93,1012.14l-32.284,0l0,14.699l31.943,0c6.597,0 9.898,-2.486 9.898,-7.481c0,-4.81 -3.176,-7.218 -9.557,-7.218Zm12.388,45.863c-0.495,0 -0.735,-0.249 -0.735,-0.751c0,-1.447 0.075,-3.67 0.24,-6.638c0.112,-1.461 0.187,-2.69 0.242,-3.692c0.053,-1.023 0.084,-1.799 0.084,-2.359c0,-1.847 -0.152,-3.399 -0.491,-4.662c-0.342,-1.256 -0.769,-2.276 -1.326,-3.068c-0.845,-0.947 -1.988,-1.636 -3.466,-2.054c-1.466,-0.422 -3.287,-0.633 -5.441,-0.633l-33.779,0l0,23.106c0,0.502 -0.251,0.751 -0.751,0.751l-5.335,0c-0.485,0 -0.738,-0.249 -0.738,-0.751l0,-51.576c0,-0.558 0.253,-0.839 0.738,-0.839l36.954,0c11.818,0 17.713,4.736 17.713,14.194c0,2.408 -0.295,4.462 -0.91,6.176c-0.614,1.71 -1.565,2.981 -2.834,3.815c2.002,0.902 3.574,2.558 4.743,4.959c0.507,1.07 0.853,2.294 1.051,3.697c0.191,1.392 0.286,2.881 0.286,4.455l0,15.119c0,0.502 -0.192,0.751 -0.581,0.751l-5.664,0Z" style="fill:#fff;fill-rule:nonzero;stroke:#030405;stroke-width:1.08px;"/><path d="M612.717,1058c-0.498,0 -0.749,-0.249 -0.749,-0.751l0,-46.793l-1.578,0l-27.121,47.373c-0.119,0.118 -0.304,0.171 -0.58,0.171l-3.582,0c-0.104,0 -0.214,-0.027 -0.33,-0.082l-26.875,-47.462l-1.49,0l0,46.793c0,0.502 -0.254,0.751 -0.756,0.751l-5.419,0c-0.497,0 -0.742,-0.249 -0.742,-0.751l0,-51.577c0,-0.558 0.245,-0.838 0.742,-0.838l11.992,0c0.17,0 0.299,0.022 0.418,0.087l24.369,43.422l25.117,-43.349c0.128,-0.109 0.309,-0.16 0.597,-0.16l11.314,0c0.385,0 0.583,0.28 0.583,0.838l0,51.577c0,0.502 -0.198,0.751 -0.583,0.751l-5.327,0Z" style="fill:#fff;fill-rule:nonzero;stroke:#030405;stroke-width:1.08px;"/><path d="M645.92,1038.85l28.037,0l-13.903,-27.888l-14.134,27.888Zm38.258,19.154l-0.499,0c0,-0.054 -0.018,-0.136 -0.08,-0.249l0.08,0.077l-6.236,-12.344l-35.024,0l-6.157,12.344l0,-0.077l0,0.249l-0.42,0l-5.815,0c-0.496,0 -0.747,-0.249 -0.747,-0.752l0,-0.086c0,-0.107 0.046,-0.22 0.167,-0.332l0,0.16l26.117,-51.996c0.108,-0.107 0.276,-0.16 0.507,-0.16l8.063,0c0.17,0 0.269,0.011 0.289,0.04c0.022,0.031 0.068,0.069 0.134,0.12l26.284,51.996l0,-0.16c0.053,0.112 0.084,0.225 0.084,0.332l0,0.086c0,0.503 -0.22,0.752 -0.672,0.752l-6.075,0Z" style="fill:#fff;fill-rule:nonzero;stroke:#030405;stroke-width:1.08px;"/><path d="M750.083,1058c-0.29,0 -0.46,-0.082 -0.504,-0.249l-39.85,-47.295l-1.671,0l0,46.793c0,0.502 -0.254,0.751 -0.745,0.751l-5.238,0c-0.504,0 -0.749,-0.249 -0.749,-0.751l0,-51.577c0,-0.558 0.245,-0.838 0.749,-0.838l11.56,0c0.167,0 0.366,0.109 0.581,0.334l37.279,44.767l0,-44.263c0,-0.558 0.279,-0.838 0.821,-0.838l5.245,0c0.509,0 0.766,0.28 0.766,0.838l0,51.577c0,0.502 -0.257,0.751 -0.766,0.751l-7.478,0Z" style="fill:#fff;fill-rule:nonzero;stroke:#030405;stroke-width:1.08px;"/><path d="M828.953,1049.35c-1.562,3.468 -4.274,5.802 -8.154,6.971c0,0.058 -0.04,0.089 -0.09,0.089c-1.551,0.5 -3.62,0.89 -6.194,1.172c-2.581,0.282 -5.71,0.42 -9.359,0.42l-7.825,0c-3.669,0 -6.782,-0.138 -9.349,-0.42c-2.586,-0.282 -4.68,-0.672 -6.294,-1.172c-0.041,0 -0.107,-0.031 -0.171,-0.089c-2,-0.611 -3.656,-1.509 -4.988,-2.683c-1.321,-1.178 -2.409,-2.61 -3.236,-4.288c-0.787,-1.683 -1.344,-3.835 -1.707,-6.467c-0.37,-2.632 -0.546,-5.711 -0.546,-9.236l0,-27.973c0,-0.558 0.231,-0.838 0.676,-0.838l5.236,0c0.502,0 0.74,0.28 0.74,0.838l0,27.973c0,5.706 0.544,9.801 1.592,12.251c0.995,2.305 2.832,3.73 5.494,4.29c2.158,0.567 6.346,0.84 12.553,0.84l7.825,0c6.214,0 10.394,-0.273 12.556,-0.84c2.664,-0.618 4.41,-2.038 5.245,-4.29c0.612,-1.165 1.01,-2.775 1.206,-4.822c0.199,-2.048 0.296,-4.524 0.296,-7.429l0,-27.973c0,-0.558 0.284,-0.838 0.834,-0.838l5.153,0c0.497,0 0.755,0.28 0.755,0.838l0,27.973c0,7.115 -0.755,12.342 -2.248,15.703" style="fill:#fff;fill-rule:nonzero;"/><path d="M828.953,1049.35c-1.562,3.468 -4.274,5.802 -8.154,6.971c0,0.058 -0.04,0.089 -0.09,0.089c-1.551,0.5 -3.62,0.89 -6.194,1.172c-2.581,0.282 -5.71,0.42 -9.359,0.42l-7.825,0c-3.669,0 -6.782,-0.138 -9.349,-0.42c-2.586,-0.282 -4.68,-0.672 -6.294,-1.172c-0.041,0 -0.107,-0.031 -0.171,-0.089c-2,-0.611 -3.656,-1.509 -4.988,-2.683c-1.321,-1.178 -2.409,-2.61 -3.236,-4.288c-0.787,-1.683 -1.344,-3.835 -1.707,-6.467c-0.37,-2.632 -0.546,-5.711 -0.546,-9.236l0,-27.973c0,-0.558 0.231,-0.838 0.676,-0.838l5.236,0c0.502,0 0.74,0.28 0.74,0.838l0,27.973c0,5.706 0.544,9.801 1.592,12.251c0.995,2.305 2.832,3.73 5.494,4.29c2.158,0.567 6.346,0.84 12.553,0.84l7.825,0c6.214,0 10.394,-0.273 12.556,-0.84c2.664,-0.618 4.41,-2.038 5.245,-4.29c0.612,-1.165 1.01,-2.775 1.206,-4.822c0.199,-2.048 0.296,-4.524 0.296,-7.429l0,-27.973c0,-0.558 0.284,-0.838 0.834,-0.838l5.153,0c0.497,0 0.755,0.28 0.755,0.838l0,27.973c0,7.115 -0.755,12.342 -2.248,15.703Z" style="fill:#fff;fill-rule:nonzero;stroke:#030405;stroke-width:1.08px;"/><path d="M899.668,1054.98c-1.337,1.065 -3.072,1.834 -5.199,2.31c-2.14,0.471 -4.677,0.711 -7.612,0.711l-25.791,0c-5.216,0 -9.261,-1.198 -12.142,-3.606c-3.393,-2.694 -5.082,-6.62 -5.082,-11.764c0,-0.498 0.207,-0.751 0.67,-0.751l5.238,0c0.496,0 0.753,0.253 0.753,0.751c0.046,1.681 0.35,3.112 0.912,4.291c0.559,1.173 1.473,2.065 2.737,2.681c0.887,0.451 2.054,0.813 3.512,1.091c1.431,0.285 3.12,0.42 5.062,0.42l23.88,0c1.876,0 3.466,-0.135 4.754,-0.42c1.273,-0.278 2.325,-0.676 3.155,-1.176c1.11,-0.667 1.872,-1.596 2.323,-2.768c0.438,-1.184 0.672,-2.576 0.672,-4.203c0,-3.41 -1.53,-5.74 -4.582,-6.967c-1.211,-0.556 -2.843,-0.958 -4.827,-1.181c-1.991,-0.222 -4.327,-0.342 -6.987,-0.342l-1.99,0c-0.733,0 -1.588,0.038 -2.59,0.089l-1.323,0l-1.508,0c-0.106,0 -0.249,0.013 -0.408,0.047c-0.167,0.031 -0.37,0.04 -0.566,0.04l-1.096,0c-1.169,0.057 -2.193,0.08 -3.083,0.08l-2.16,0c-7.11,0 -12.403,-0.838 -15.887,-2.517c-4.716,-2.236 -7.079,-6.389 -7.079,-12.438c0,-9.683 5.406,-14.523 16.217,-14.523l26.296,0c11.868,0 17.811,5.12 17.811,15.366c0,0.451 -0.189,0.676 -0.584,0.676l-5.401,0c-0.451,0 -0.68,-0.225 -0.68,-0.676c-0.044,-1.616 -0.366,-3.03 -0.914,-4.244c-0.544,-1.203 -1.464,-2.103 -2.744,-2.725c-1.88,-0.952 -4.718,-1.427 -8.479,-1.427l-25.457,0c-1.722,0 -3.157,0.144 -4.285,0.42c-1.145,0.282 -2.047,0.647 -2.71,1.093c-1.561,1.007 -2.334,3.046 -2.334,6.127c0,3.081 1.53,5.244 4.589,6.476c2.543,1.065 6.456,1.585 11.718,1.585l2.594,0c1.156,0 2.543,-0.025 4.148,-0.08c0.17,0 0.359,-0.007 0.54,-0.036c0.196,-0.033 0.407,-0.042 0.636,-0.042l1.079,0c0.998,-0.053 1.874,-0.087 2.662,-0.087l1.819,0c3.785,0 7.037,0.22 9.812,0.672c2.79,0.446 5.115,1.087 6.995,1.931c4.95,2.466 7.401,6.752 7.401,12.849c0,5.663 -1.497,9.748 -4.485,12.267" style="fill:#fff;fill-rule:nonzero;"/><path d="M899.668,1054.98c-1.337,1.065 -3.072,1.834 -5.199,2.31c-2.14,0.471 -4.677,0.711 -7.612,0.711l-25.791,0c-5.216,0 -9.261,-1.198 -12.142,-3.606c-3.393,-2.694 -5.082,-6.62 -5.082,-11.764c0,-0.498 0.207,-0.751 0.67,-0.751l5.238,0c0.496,0 0.753,0.253 0.753,0.751c0.046,1.681 0.35,3.112 0.912,4.291c0.559,1.173 1.473,2.065 2.737,2.681c0.887,0.451 2.054,0.813 3.512,1.091c1.431,0.285 3.12,0.42 5.062,0.42l23.88,0c1.876,0 3.466,-0.135 4.754,-0.42c1.273,-0.278 2.325,-0.676 3.155,-1.176c1.11,-0.667 1.872,-1.596 2.323,-2.768c0.438,-1.184 0.672,-2.576 0.672,-4.203c0,-3.41 -1.53,-5.74 -4.582,-6.967c-1.211,-0.556 -2.843,-0.958 -4.827,-1.181c-1.991,-0.222 -4.327,-0.342 -6.987,-0.342l-1.99,0c-0.733,0 -1.588,0.038 -2.59,0.089l-1.323,0l-1.508,0c-0.106,0 -0.249,0.013 -0.408,0.047c-0.167,0.031 -0.37,0.04 -0.566,0.04l-1.096,0c-1.169,0.057 -2.193,0.08 -3.083,0.08l-2.16,0c-7.11,0 -12.403,-0.838 -15.887,-2.517c-4.716,-2.236 -7.079,-6.389 -7.079,-12.438c0,-9.683 5.406,-14.523 16.217,-14.523l26.296,0c11.868,0 17.811,5.12 17.811,15.366c0,0.451 -0.189,0.676 -0.584,0.676l-5.401,0c-0.451,0 -0.68,-0.225 -0.68,-0.676c-0.044,-1.616 -0.366,-3.03 -0.914,-4.244c-0.544,-1.203 -1.464,-2.103 -2.744,-2.725c-1.88,-0.952 -4.718,-1.427 -8.479,-1.427l-25.457,0c-1.722,0 -3.157,0.144 -4.285,0.42c-1.145,0.282 -2.047,0.647 -2.71,1.093c-1.561,1.007 -2.334,3.046 -2.334,6.127c0,3.081 1.53,5.244 4.589,6.476c2.543,1.065 6.456,1.585 11.718,1.585l2.594,0c1.156,0 2.543,-0.025 4.148,-0.08c0.17,0 0.359,-0.007 0.54,-0.036c0.196,-0.033 0.407,-0.042 0.636,-0.042l1.079,0c0.998,-0.053 1.874,-0.087 2.662,-0.087l1.819,0c3.785,0 7.037,0.22 9.812,0.672c2.79,0.446 5.115,1.087 6.995,1.931c4.95,2.466 7.401,6.752 7.401,12.849c0,5.663 -1.497,9.748 -4.485,12.267Z" style="fill:#fff;fill-rule:nonzero;stroke:#030405;stroke-width:1.08px;"/><path d="M916.393,1058c-0.452,0 -0.663,-0.249 -0.663,-0.751l0,-51.577c0,-0.558 0.211,-0.838 0.663,-0.838l4.076,0c0.385,0 0.585,0.28 0.585,0.838l0,51.577c0,0.502 -0.2,0.751 -0.585,0.751l-4.076,0Z" style="fill:#fff;fill-rule:nonzero;stroke:#030405;stroke-width:1.08px;"/><path d="M948.007,1038.85l28.046,0l-13.901,-27.888l-14.145,27.888Zm38.276,19.154l-0.509,0c0,-0.054 -0.033,-0.136 -0.077,-0.249l0.077,0.077l-6.234,-12.344l-35.03,0l-6.157,12.344l0,-0.077l0,0.249l-0.413,0l-5.831,0c-0.498,0 -0.742,-0.249 -0.742,-0.752l0,-0.086c0,-0.107 0.059,-0.22 0.167,-0.332l0,0.16l26.13,-51.996c0.106,-0.107 0.267,-0.16 0.505,-0.16l8.059,0c0.169,0 0.262,0.011 0.279,0.04c0.035,0.031 0.084,0.069 0.143,0.12l26.285,51.996l0,-0.16c0.055,0.112 0.086,0.225 0.086,0.332l0,0.086c0,0.503 -0.232,0.752 -0.679,0.752l-6.059,0Z" style="fill:#fff;fill-rule:nonzero;stroke:#030405;stroke-width:1.08px;"/><path d="M988.669,630.693l24.725,24.527c0,0 -88.341,187.069 -312.373,187.069c0,0 196.859,-10.183 287.648,-211.596" style="fill:#b28f2f;fill-rule:nonzero;"/><path d="M895.088,444.039l42.882,43.581c0,0 -27.262,330.566 -330.933,330.566c0,0 265.954,-10.584 287.866,-349.602c0.447,-7.034 -0.042,29.504 0.185,-24.545" style="fill:#b28f2f;fill-rule:nonzero;"/><path d="M953.783,548.435l35.646,35.806c0,0 -96.069,261.839 -338.298,245.951c0,0 230.164,-4.688 302.652,-281.757" style="fill:#b28f2f;fill-rule:nonzero;"/><path d="M340.541,22l-98.606,99.858c0,55.069 -0.462,66.829 -0.462,88.986c0,623.045 440.218,631.277 440.218,631.277c0,0 -341.119,-11.033 -341.119,-655.006c0,-3.225 -0.031,-161.874 -0.031,-165.115" style="fill:#ef4023;fill-rule:nonzero;"/><path d="M203.188,240.951l-70.565,71.283c0,0 40.773,530.056 472.345,530.056c-115.227,0 -401.78,-167.467 -401.78,-601.339" style="fill:#ef4023;fill-rule:nonzero;"/><path d="M116.283,415.246l-49.677,51.146c0,0 71.789,375.897 454.112,375.897c0,0 -318.558,-0.168 -404.435,-427.043" style="fill:#ef4023;fill-rule:nonzero;"/><path d="M426.227,527.846c0,115.995 93.139,210.027 208.033,210.027c114.89,0 208.029,-94.032 208.029,-210.027c0,-115.993 -93.139,-210.027 -208.029,-210.027c-114.894,0 -208.033,94.034 -208.033,210.027" style="fill:#2c3990;fill-rule:nonzero;"/><path d="M648.524,361.308c0,7.958 -6.386,14.407 -14.262,14.407c-7.883,0 -14.268,-6.449 -14.268,-14.407c0,-7.95 6.385,-14.399 14.268,-14.399c7.876,0 14.262,6.449 14.262,14.399" style="fill:#ffcb03;fill-rule:nonzero;"/><path d="M568.442,503.524c0,9.621 -7.724,17.417 -17.245,17.417c-9.53,0 -17.25,-7.796 -17.25,-17.417c0,-9.613 7.72,-17.409 17.25,-17.409c9.521,0 17.245,7.796 17.245,17.409" style="fill:#fff;fill-rule:nonzero;"/><path d="M627.623,562.622c-4.353,-0.307 -8.653,-0.587 -12.863,-1.172c-10.321,-1.06 -19.115,-3.41 -27.665,-6.914c-37.876,-14.073 -64.138,-44.696 -64.138,-80.231c0,-18.36 7.035,-35.401 19.031,-49.538c0.337,-0.395 3.338,-3.854 0.229,-6.715c-3.655,-3.068 -7.451,1.391 -7.451,1.391c-6.861,7.601 -12.89,17.542 -17.043,27.641c-2.682,6.994 -4.377,14.328 -5.005,21.895c-0.213,2.765 -0.456,5.386 -0.301,8.599c0.055,1.164 0.072,6.889 0.07,14.129c-0.004,13.194 -0.07,31.436 -0.07,36.373c0,10.375 -5.311,45.666 -5.311,45.666c0,0 -11.897,50.811 -12.384,53.535c-0.551,3.058 -1.187,6.911 2.202,7.831c4.597,1.25 6.341,-4.495 6.341,-4.495c0,0 7.364,-18.802 9.152,-23.248c1.79,-4.446 8.726,-21.119 12.854,-21.119c4.129,0 5.884,14.728 10.01,32.79c4.127,18.062 11.182,48.766 12.558,57.38c1.376,8.615 7.257,7.428 7.257,7.428c5.783,-2.008 4.9,-8.492 4.9,-8.492c0,0 -3.29,-19.038 -5.505,-37.976c-2.288,-19.572 -5.875,-37.792 -5.875,-58.541c0,-20.948 16.36,-19.541 23.034,-18.098c1.707,0.369 2.792,0.74 2.792,0.742c16.07,7.054 31.961,11.473 51.417,12.058c1.544,0.047 8.447,-0.038 8.447,-5.248c0,-4.811 -4.584,-5.525 -6.683,-5.671" style="fill:#fff;fill-rule:nonzero;"/><path d="M700.071,503.524c0,9.621 7.725,17.417 17.246,17.417c9.53,0 17.25,-7.796 17.25,-17.417c0,-9.613 -7.72,-17.409 -17.25,-17.409c-9.521,0 -17.246,7.796 -17.246,17.409" style="fill:#ed1c24;fill-rule:nonzero;"/><path d="M640.89,562.622c4.358,-0.307 8.654,-0.587 12.868,-1.172c10.316,-1.06 19.111,-3.41 27.665,-6.914c37.873,-14.073 64.136,-44.696 64.136,-80.231c0,-18.36 -7.031,-35.401 -19.034,-49.538c-0.337,-0.395 -3.338,-3.854 -0.224,-6.715c3.65,-3.068 7.449,1.391 7.449,1.391c6.863,7.601 12.892,17.542 17.043,27.641c2.684,6.994 4.377,14.328 5.007,21.895c0.213,2.765 0.456,5.386 0.299,8.599c-0.055,1.164 -0.072,6.889 -0.068,14.129c0.004,13.194 0.068,31.436 0.068,36.373c0,10.375 5.311,45.666 5.311,45.666c0,0 11.897,50.811 12.386,53.535c0.548,3.058 1.187,6.911 -2.202,7.831c-4.595,1.25 -6.341,-4.495 -6.341,-4.495c0,0 -7.364,-18.802 -9.154,-23.248c-1.788,-4.446 -8.726,-21.119 -12.855,-21.119c-4.128,0 -5.881,14.728 -10.009,32.79c-4.129,18.062 -11.184,48.766 -12.56,57.38c-1.376,8.615 -7.258,7.428 -7.258,7.428c-5.782,-2.008 -4.899,-8.492 -4.899,-8.492c0,0 3.29,-19.038 5.505,-37.976c2.288,-19.572 5.874,-37.792 5.874,-58.541c0,-20.948 -16.36,-19.541 -23.034,-18.098c-1.702,0.369 -2.787,0.74 -2.792,0.742c-16.067,7.054 -31.961,11.473 -51.417,12.058c-1.539,0.047 -8.442,-0.038 -8.442,-5.248c0,-4.811 4.58,-5.525 6.678,-5.671" style="fill:#ed1c24;fill-rule:nonzero;"/><path d="M725.63,411.689c-0.181,-0.164 -0.357,-0.331 -0.537,-0.495c-9.552,-8.586 -20.976,-15.806 -33.769,-21.253c-6.562,-2.792 -27.308,-11.359 -57.06,-11.359l-0.005,0l-0.009,0c-29.748,0 -50.499,8.567 -57.056,11.359c-12.8,5.447 -24.221,12.667 -33.768,21.253c-0.181,0.164 -0.357,0.331 -0.538,0.495c-1.777,1.93 -1.686,4.998 -0.086,6.554c3.061,2.627 5.965,0.393 7.04,-0.603c0.053,-0.046 0.103,-0.091 0.15,-0.137c9.338,-8.806 20.803,-15.719 33.759,-21.055c2.101,-0.729 4.219,-1.456 8.799,-1.456c1.804,0 3.678,0.145 5.512,0.569c2.691,0.623 5.289,1.416 7.425,3.459c3.992,3.053 7.438,8.206 7.438,15.13c0,8.986 -1.746,14.281 -4.254,25.985c-2.094,9.77 -4.719,20.421 -7.304,28.848c-5.69,18.527 -10.274,35.013 -10.274,35.013c0,0 -2.202,6.113 2.752,7.967c0.621,0.232 1.2,0.347 1.74,0.367c3.749,0.145 5.515,-4.397 6.156,-6.667c0.207,-0.727 1.57,-5.722 3.867,-12.529c3.93,-11.664 8.671,-27.948 16.64,-38.587c3.358,-4.502 8.6,-8.05 12.011,-8.052c3.411,0.002 8.654,3.55 12.012,8.052c7.968,10.639 12.707,26.923 16.639,38.587c2.293,6.807 3.66,11.802 3.867,12.529c0.641,2.27 2.402,6.812 6.157,6.667c0.539,-0.02 1.114,-0.135 1.737,-0.367c4.954,-1.854 2.752,-7.967 2.752,-7.967c0,0 -4.584,-16.486 -10.274,-35.013c-2.587,-8.427 -5.212,-19.078 -7.301,-28.848c-2.508,-11.704 -4.254,-16.999 -4.254,-25.985c0,-6.924 3.446,-12.077 7.431,-15.13c2.138,-2.043 4.736,-2.836 7.431,-3.459c1.832,-0.424 3.709,-0.569 5.51,-0.569c4.58,0 6.696,0.727 8.796,1.456c12.961,5.336 24.422,12.249 33.76,21.055c0.051,0.046 0.101,0.091 0.15,0.137c1.079,0.996 3.979,3.23 7.039,0.603c1.606,-1.556 1.696,-4.624 -0.081,-6.554" style="fill:#ffcb03;fill-rule:nonzero;"/></svg>